<svg xmlns="http://www.w3.org/2000/svg" id="delivery" width="32" height="32" version="1.1" viewBox="0 0 32 32"><g id="layer1" transform="translate(0 -1020.362)"><path style="line-height:normal;text-indent:0;text-align:start;text-decoration-line:none;text-decoration-style:solid;text-decoration-color:#000;text-transform:none;block-progression:tb;isolation:auto;mix-blend-mode:normal" id="path12587" fill="#000" fill-opacity="1" fill-rule="nonzero" stroke="none" stroke-dasharray="none" stroke-dashoffset="0" stroke-linecap="round" stroke-linejoin="round" stroke-miterlimit="4" stroke-opacity="1" stroke-width="1" d="M23.803 1024.85a.5.5 0 0 0-.346.86l.649.644H10.81a.5.5 0 1 0 0 1h13.287l-.64.637a.5.5 0 1 0 .705.71l1.503-1.497a.5.5 0 0 0 0-.709l-1.503-1.494a.5.5 0 0 0-.36-.15zm-19.04 1.505a.5.5 0 1 0 .05 1h1a.5.5 0 1 0 0-1h-1a.5.5 0 0 0-.05 0zm3 0a.5.5 0 1 0 .05 1h1a.5.5 0 1 0 0-1h-1a.5.5 0 0 0-.05 0zm-7 4a.5.5 0 1 0 .05 1h.926a.5.5 0 1 0 0-1H.813a.5.5 0 0 0-.05 0zm3 0a.5.5 0 1 0 .05 1h2.023c-.203.257-.353.56-.421.902l-.02.098H4.114a.5.5 0 1 0 0 1h1.082l-1.274 6.402a.5.5 0 1 0 .98.195l1.378-6.923a.5.5 0 0 0 .033-.16l.082-.417c.115-.578.746-1.097 1.309-1.097h14.999c.282 0 .465.102.585.252.12.15.184.361.127.65l-.02.098h-6.348a.5.5 0 0 0-.084.992.5.5 0 0 0 .084.01h6.149l-1.772 8.903c-.115.577-.746 1.097-1.308 1.097h-6.5a.5.5 0 1 0 0 1h6.5c1.099 0 2.073-.818 2.289-1.902l1.611-8.098h4.254c.417 0 .566.109.71.29.127.156.222.417.304.71h-4.069a.5.5 0 1 0 0 1h.385l-.709 3.563c-.072.36.007.732.227 1.005.219.274.57.432.937.432h4.547l-.297 1.5h-.89a.5.5 0 1 0 0 1h.69l-.08.402c-.114.578-.745 1.098-1.308 1.098h-1.894c.3-1.505-.688-2.744-2.21-2.744-1.52 0-3 1.239-3.3 2.744h-8.99c.3-1.505-.688-2.744-2.21-2.744-1.52 0-3 1.239-3.3 2.744H4.217c-.143 0-.212-.044-.26-.103-.047-.06-.08-.149-.05-.3l.119-.597h1.582a.5.5 0 1 0 0-1H1.616a.5.5 0 1 0 0 1h1.39l-.08.402c-.08.404.01.817.252 1.12.242.302.628.478 1.04.478h2.591c.2 1.016 1.046 1.744 2.21 1.744 1.165 0 2.302-.728 2.907-1.744h9.383c.2 1.016 1.046 1.744 2.21 1.744 1.165 0 2.302-.728 2.907-1.744h2.291c1.1 0 2.073-.818 2.29-1.902l.183-.922a.5.5 0 0 0 .033-.162l.48-2.416a.5.5 0 0 0-.005-.22l-1.407-5.5c-.097-.384-.22-.827-.529-1.214-.309-.386-.836-.664-1.492-.664h-4.055l.18-.902c.108-.542-.012-1.078-.326-1.47-.315-.394-.816-.628-1.365-.628H3.813a.5.5 0 0 0-.05 0zm-2.302 2a.5.5 0 1 0 .051 1h.528a.5.5 0 1 0 0-1h-.528a.5.5 0 0 0-.05 0zm12.301 0a.5.5 0 0 0 .051 1h1.062a.5.5 0 1 0 0-1h-1.062a.5.5 0 0 0-.05 0zm12.856 4h2.927l1.024 4h-4.514c-.099 0-.132-.03-.156-.062-.025-.03-.049-.076-.027-.183l.746-3.756zm-23.655 5a.5.5 0 0 0 .051 1h4a.5.5 0 1 0 0-1h-4a.5.5 0 0 0-.05 0zm6.953 2.246c.965 0 1.592.773 1.397 1.753-.195.98-1.131 1.754-2.096 1.754-.964 0-1.59-.773-1.394-1.754.195-.98 1.129-1.753 2.093-1.753zm14.5 0c.965 0 1.592.773 1.397 1.753-.195.98-1.131 1.754-2.096 1.754-.964 0-1.59-.773-1.394-1.754.195-.98 1.129-1.753 2.093-1.753zm-14.699 1.003a.68.828 47.842 0 0-.9.75.68.828 47.842 0 0 .601.75.68.828 47.842 0 0 .899-.75.68.828 47.842 0 0-.6-.75zm14.5 0a.68.828 47.842 0 0-.9.75.68.828 47.842 0 0 .601.75.68.828 47.842 0 0 .899-.75.68.828 47.842 0 0-.6-.75z" baseline-shift="baseline" clip-rule="nonzero" color="#000" color-interpolation="sRGB" color-interpolation-filters="linearRGB" color-rendering="auto" direction="ltr" display="inline" font-family="sans-serif" font-size="medium" font-stretch="normal" font-style="normal" font-variant="normal" font-weight="normal" image-rendering="auto" letter-spacing="normal" opacity="1" overflow="visible" paint-order="fill markers stroke" shape-rendering="auto" text-anchor="start" text-decoration="none" text-rendering="auto" visibility="visible" word-spacing="normal" writing-mode="lr-tb"></path></g></svg>