<svg xmlns="http://www.w3.org/2000/svg" viewBox="0 0 24 24" id="star"><path d="m20.4 14.1-3.2-1.3-1.3-3.2c-.1-.4-.5-.6-.9-.6s-.8.2-.9.6l-1.3 3.2-3.2 1.3c-.4.1-.6.5-.6.9s.2.8.6.9l3.2 1.3 1.3 3.2c.2.4.5.6.9.6s.8-.2.9-.6l1.3-3.2 3.2-1.3c.4-.2.6-.5.6-.9s-.2-.8-.6-.9zm-4.3 1.4c-.2.1-.4.3-.5.5l-.6 1.4-.5-1.3c-.1-.2-.3-.4-.5-.5l-1.4-.6 1.3-.5c.2-.1.4-.3.5-.5l.5-1.3.5 1.3c.1.2.3.4.5.5l1.3.5-1.1.5zM10 10.7c0-.4-.2-.8-.6-.9l-1.5-.7-.7-1.5c-.1-.4-.5-.6-.9-.6s-.8.2-.9.6l-.7 1.5-1.5.7c-.4.2-.6.5-.6.9s.2.8.6.9l1.5.7.7 1.5c.2.4.5.6.9.6s.8-.2.9-.6l.7-1.5 1.5-.7c.4-.1.6-.5.6-.9zm-3.7.2c-.1-.1-.1-.2-.2-.2.1-.1.2-.1.2-.2.1.1.1.2.2.2l-.2.2zm7.9-4.5.9.4.4.9c.2.4.5.6.9.6s.8-.2.9-.6l.4-.9.9-.4c.4-.2.6-.5.6-.9s-.2-.8-.6-.9l-.9-.4-.4-.9c-.2-.4-.5-.6-.9-.6s-.8.2-.9.6l-.4.9-.9.4c-.4.2-.6.5-.6.9s.3.8.6.9z"></path></svg>